<?xml version="1.0" encoding="UTF-8"?>
<svg width="22px" height="22px" viewBox="0 0 22 22" version="1.1" xmlns="http://www.w3.org/2000/svg" xmlns:xlink="http://www.w3.org/1999/xlink">
    <!-- Generator: Sketch 51.2 (57519) - http://www.bohemiancoding.com/sketch -->
    <title>bk_ico_navigation-delivery</title>
    <desc>Created with Sketch.</desc>
    <defs></defs>
    <g id="02_Symbols" stroke="none" stroke-width="1" fill="none" fill-rule="evenodd">
        <g id="Header/header_home_1440" transform="translate(-1296.000000, -29.000000)" fill="#682F1C">
            <g id="Group-2" transform="translate(1296.000000, 29.000000)">
                <g id="Icon/bk_ico_footer_delivery">
                    <path d="M19.9472207,16.3795145 C20.162139,16.6490589 20.2798768,16.9805984 20.2798768,17.3220213 C20.2798768,18.1746799 19.5575645,18.8692059 18.6707929,18.8692059 C18.6091207,18.8692059 18.5465141,18.8656119 18.4848419,18.8593226 C17.7569229,18.7811547 17.1635616,18.217807 17.0738566,17.5205856 C17.0205942,17.1063858 17.1336599,16.7038662 17.3934307,16.3795145 L19.9472207,16.3795145 Z M14.4780174,16.3229102 C14.4359681,16.3956872 14.3574762,16.4406112 14.2705745,16.4406112 L11.5803582,16.4406112 C11.4906531,16.4406112 11.402817,16.404672 11.3458169,16.3381844 C10.9113082,15.8404258 10.6496685,15.1998087 10.6496685,14.4989934 C10.6496685,14.1710477 10.707603,13.8431021 10.823472,13.5340246 C10.9440131,13.2096729 11.171079,12.9158695 11.2215381,12.5681573 C11.2505053,12.3704915 11.1860298,12.175521 11.0580133,12.0371549 L12.6661627,12.201577 L11.3673087,15.3480581 C11.3215218,15.4397032 11.3047021,15.5466224 11.3346038,15.6598311 C11.3888006,15.8646848 11.5943746,15.9985585 11.813965,15.9985585 L14.2303941,15.9985585 C14.3425254,15.9985585 14.450919,15.9329694 14.4808207,15.8287455 C14.5135256,15.7137399 14.4583944,15.6086176 14.3668205,15.5574042 L14.3668205,15.5565057 C14.3668205,15.5565057 13.6622623,15.1782452 13.3211963,14.9976504 L14.733116,11.7738999 C14.733116,11.7738999 14.8031981,11.5717417 14.8003948,11.3947409 C14.7910505,10.9185459 14.4294272,10.5268081 13.9510003,10.4693053 L13.9510003,10.4684068 L10.8664557,10.0173692 L11.1935052,8.84574976 L13.1156223,8.84574976 C13.1604748,8.84574976 13.2015896,8.86731331 13.2296224,8.90055711 C13.3520324,9.04251714 13.5361146,9.13236526 13.7416886,9.13236526 C14.0350988,9.13236526 14.2827221,8.95087206 14.3714927,8.69750036 L14.8022637,8.69750036 C14.8022637,8.69839885 14.8031981,8.69839885 14.8031981,8.69929733 L16.3496754,13.0784946 L14.4780174,16.3229102 Z M7.40814004,17.5223826 C7.30535303,18.2780052 6.62228664,18.8692059 5.81307255,18.8692059 C5.00385846,18.8692059 4.3217265,18.2780052 4.21800506,17.5223826 L7.40814004,17.5223826 Z M21.9609116,15.6849885 C21.3469928,14.4801253 20.1574668,13.5960198 18.7371372,13.3633132 C18.7427438,13.2483076 18.7175143,13.1306065 18.6558421,13.0200933 L16.5954298,9.52590002 C16.5944953,9.52410306 16.5954298,9.52320457 16.5972986,9.52320457 C16.707561,9.55285445 16.82343,9.56902711 16.9430367,9.56902711 C17.0532992,9.56902711 17.1598239,9.5555499 17.2616765,9.53039242 C17.3644635,9.50523495 17.4410865,9.4216762 17.4588406,9.32104631 C17.5139718,9.00388245 17.5420047,8.67863226 17.5420047,8.34619422 C17.5420047,8.02543644 17.5158407,7.71096802 17.4644472,7.40368746 C17.4429554,7.27700161 17.3392339,7.1772702 17.2074797,7.15031576 C17.1224468,7.13324462 17.0336762,7.12425981 16.9430367,7.12425981 C16.3683639,7.12425981 15.8824617,7.49084013 15.7254779,7.99488808 C15.7245435,7.99488808 15.7245435,7.99578656 15.723609,7.99578656 L14.1565744,7.99578656 C14.0463119,7.91043085 13.9061478,7.85292805 13.7538362,7.85113109 L12.1690474,7.85023261 C12.1279326,7.85023261 12.0914899,7.82237969 12.0830801,7.783745 C12.0830801,7.783745 11.8662929,6.73342049 11.8083584,6.4656731 C11.7513584,6.19702722 11.6728665,6.00205681 11.5345712,5.81427424 C11.8887192,5.88615273 12.251277,5.9400616 12.6222447,5.97330541 C12.8128678,5.99037655 12.9988189,5.90232539 13.1025403,5.74778663 C13.1894421,5.61930382 13.2595241,5.47914076 13.3090488,5.33089136 C13.3268029,5.27608401 13.3071799,5.21588577 13.2623274,5.17814956 L12.662425,4.67140617 C12.7539989,4.47463879 12.8053924,4.25720634 12.8053924,4.02899212 C12.8053924,3.87625032 12.7820317,3.72979789 12.7399825,3.5905333 L12.7409169,3.5905333 L12.9932123,3.5905333 C13.093196,3.5905333 13.1623437,3.4952943 13.1296387,3.40544618 C12.8231465,2.55997538 11.9438504,1.97236869 10.9384066,2.07389706 C9.99183166,2.16913607 9.21719139,2.89600735 9.09665026,3.80347334 C9.03684691,4.25540938 9.13496178,4.68128946 9.34333908,5.03978346 C9.36950305,5.08470752 9.41061785,5.11974828 9.45827365,5.14221031 C9.61806072,5.21588577 9.78158551,5.28417034 9.94791358,5.34886098 C9.57694592,5.48543012 9.27886359,5.77384259 9.14710934,6.14132139 L8.07064903,10.0308464 L8.07064903,10.0308464 C8.02579652,10.1665171 8.00056698,10.3111726 8.00056698,10.4612189 C8.00056698,11.1350798 8.49207577,11.6984275 9.14897819,11.8394891 L7.17920534,11.8385906 C7.32217272,11.7451485 7.41654988,11.5861174 7.41654988,11.4064211 L7.41654988,7.31204238 C7.41654988,7.02362991 7.17266435,6.78912633 6.87271317,6.78912633 L0.543836718,6.78912633 C0.243885539,6.78912633 0,7.02362991 0,7.31204238 L0,11.4064211 C0,11.6957321 0.243885539,11.9293372 0.543836718,11.9293372 L3.08080698,11.9293372 C2.90326578,12.0371549 2.78552793,12.225836 2.78552793,12.4423699 L2.78459351,12.560071 C2.78459351,12.894306 3.06679057,13.1656473 3.41439754,13.1656473 L3.79190619,13.1656473 C3.87320137,13.1656473 3.90216862,13.2671757 3.83395542,13.3094043 C2.60892116,14.065027 1.61375604,15.1342196 0.969001163,16.3992811 C0.741935317,16.8440293 1.08487015,17.3624529 1.59973962,17.3624529 L3.09388896,17.3624529 C3.11724964,18.7883426 4.32546421,19.9375 5.81307255,19.9375 C7.30068089,19.9375 8.50889546,18.7883426 8.53225614,17.3624529 L10.8898163,17.3624529 L14.4331649,17.3624529 C14.7667554,17.3624529 15.0751165,17.1881476 15.2377068,16.9078214 L15.6348384,16.2204833 L16.2029703,16.2204833 C16.0188881,16.6014394 15.9263798,17.0318118 15.955347,17.4855448 C16.0394455,18.8045152 17.1766436,19.8773018 18.5493173,19.9348046 C20.1070077,19.9994952 21.3909109,18.8045152 21.3909109,17.3220213 C21.3909109,16.927588 21.3002715,16.5547183 21.1376811,16.2204833 L21.6058292,16.2204833 C21.891764,16.2204833 22.0870593,15.9320709 21.9609116,15.6849885 L21.9609116,15.6849885 Z" id="Fill-1"></path>
                </g>
            </g>
        </g>
    </g>
</svg>